<svg xmlns="http://www.w3.org/2000/svg" xmlns:xlink="http://www.w3.org/1999/xlink" width="200" height="200" class="icon" p-id="3617" t="1583504038959" version="1.1" viewBox="0 0 1024 1024"><defs><style type="text/css"/></defs><path d="M512 416.681074c-53.013401 0-95.995331 42.98193-95.995331 95.995331s42.98193 95.995331 95.995331 95.995332 95.995331-42.98193 95.995331-95.995332-42.98193-95.995331-95.995331-95.995331m-351.983563 0c-53.013401 0-95.995331 42.98193-95.995331 95.995331s42.98193 95.995331 95.995331 95.995332 95.995331-42.98193 95.995331-95.995332-42.98193-95.995331-95.995331-95.995331m703.966103 0c-53.013401 0-95.995331 42.98193-95.995331 95.995331s42.98193 95.995331 95.995331 95.995332 95.995331-42.98193 95.995331-95.995332-42.98193-95.995331-95.995331-95.995331" p-id="3618"/></svg>