<svg xmlns="http://www.w3.org/2000/svg" xmlns:xlink="http://www.w3.org/1999/xlink" width="200" height="200" class="icon" p-id="3064" t="1581161835979" version="1.1" viewBox="0 0 1024 1024"><defs><style type="text/css"/></defs><path d="M864 160H160c-17.6 0-32-14.4-32-32s14.4-32 32-32h704c17.6 0 32 14.4 32 32s-14.4 32-32 32zM864 928H160c-17.6 0-32-14.4-32-32s14.4-32 32-32h704c17.6 0 32 14.4 32 32s-14.4 32-32 32z" p-id="3065"/><path d="M800 928c-17.6 0-32-14.4-32-32 0-163.2-84.8-308.8-201.6-344-12.8-4.8-22.4-16-22.4-30.4v-19.2c0-14.4 9.6-27.2 22.4-30.4C683.2 436.8 768 291.2 768 128c0-17.6 14.4-32 32-32s32 14.4 32 32c0 171.2-78.4 320-196.8 384C753.6 576 832 724.8 832 896c0 17.6-14.4 32-32 32zM224 928c-17.6 0-32-14.4-32-32 0-171.2 78.4-320 196.8-384C270.4 448 192 299.2 192 128c0-17.6 14.4-32 32-32s32 14.4 32 32c0 163.2 84.8 308.8 201.6 344 12.8 4.8 22.4 16 22.4 30.4v19.2c0 14.4-9.6 27.2-22.4 30.4C340.8 587.2 256 732.8 256 896c0 17.6-14.4 32-32 32z" p-id="3066"/></svg>