<svg xmlns="http://www.w3.org/2000/svg" xmlns:xlink="http://www.w3.org/1999/xlink" width="200" height="200" class="icon" p-id="4156" t="1568081034091" version="1.1" viewBox="0 0 1024 1024"><defs><style type="text/css"/></defs><path d="M895.981325 192.015222H575.996546a96.001471 96.001471 0 0 1-57.598836-19.200295l-76.79299-57.596789A95.999424 95.999424 0 0 0 384.005884 96.019891H128.018675c-53.017494 0-95.995331 42.97886-95.995331 95.995331v639.969556c0 53.017494 42.97886 95.995331 95.995331 95.995331h767.96265c53.017494 0 95.995331-42.97886 95.995331-95.995331V288.010553c0-53.016471-42.977837-95.995331-95.995331-95.995331zM224.014007 543.998785h191.990662c17.671475 0 31.998785 14.325263 31.998785 31.998785 0 17.671475-14.32731 31.998785-31.998785 31.998784H224.014007c-17.671475 0-31.998785-14.32731-31.998785-31.998784 0-17.673521 14.32731-31.998785 31.998785-31.998785z m383.981324 223.988424H224.014007c-17.671475 0-31.998785-14.32731-31.998785-31.998785 0-17.672498 14.32731-31.998785 31.998785-31.998785h383.981324c17.671475 0 31.998785 14.325263 31.998785 31.998785 0 17.671475-14.328333 31.998785-31.998785 31.998785z" p-id="4157"/></svg>